<svg xmlns="http://www.w3.org/2000/svg" version="1.1" xmlns:xlink="http://www.w3.org/1999/xlink"
  xmlns:svgjs="http://svgjs.com/svgjs" width="1585" height="300" transform="matrix(1,0,0,1,0,0)">
  <text font-family="DM Sans" font-size="260" text-anchor="left" x="310" charspacing="20px">
    <tspan fill="white" dy="239.20000000000002" x="310">LearnAI</tspan>
  </text>
  <path fill="white" transform="matrix(6.123233995736766e-17,1,-1,6.123233995736766e-17,148,149.33)"
    d="M54.019,92.921A75,75,-223.1474131180609,0,1,21.634,48.274L10.497,4.837A75,75,-189.18696568335582,0,1,8.454,-7.001L4.5,-50.5A7.986353554300451,7.986353554300451,18.25628662107138,0,1,19.78,-54.401L79.434,83.116A11.987875191462543,11.987875191462543,34.078092180345344,0,1,62,98ZM-54.019,-92.921A75,75,136.8525868819391,0,1,-21.634,-48.274L-10.497,-4.837A75,75,170.81303431664418,0,1,-8.454,7.001L-4.5,50.5A7.9863535543004485,7.9863535543004485,18.25628662107137,0,1,-19.78,54.401L-79.434,-83.116A11.987875191462539,11.987875191462539,34.07809218034533,0,1,-62,-98Z" />
</svg>
